<svg width="320" height="51" viewBox="0 0 320 51" fill="none" xmlns="http://www.w3.org/2000/svg">
<g clip-path="url(#clip0_263_591)">
<path d="M294.84 0H25.1597C11.2644 0 0 11.2644 0 25.1597C0 39.055 11.2644 50.3194 25.1597 50.3194H294.84C308.736 50.3194 320 39.055 320 25.1597C320 11.2644 308.736 0 294.84 0Z" fill="#4C3CCE"/>
<path d="M60.5401 32.5189C59.3231 32.5492 58.1215 32.2422 57.0681 31.632C56.0879 31.0416 55.3035 30.1752 54.8132 29.1412C54.2715 27.9859 54.0025 26.7216 54.0269 25.4459C54.0025 24.1701 54.2715 22.9058 54.8132 21.7505C55.3035 20.7166 56.0879 19.8502 57.0681 19.2597C58.1208 18.6473 59.3225 18.3382 60.5401 18.3666C61.9232 18.3206 63.2839 18.7245 64.4179 19.5176C65.4857 20.3096 66.2646 21.4298 66.6351 22.7066L64.355 23.3293C64.1387 22.5086 63.662 21.7802 62.9964 21.2536C62.2827 20.7413 61.4178 20.4832 60.5401 20.5209C59.9627 20.4856 59.385 20.5868 58.8539 20.8162C58.3229 21.0457 57.8533 21.397 57.4832 21.8418C56.7284 22.8853 56.3553 24.1567 56.4265 25.4427C56.3425 26.7297 56.7132 28.0053 57.4738 29.0469C57.8462 29.4912 58.3176 29.8421 58.8501 30.0715C59.3826 30.3009 59.9614 30.4024 60.5401 30.3677C61.4171 30.4037 62.2809 30.1446 62.9932 29.6318C63.662 29.1001 64.139 28.3647 64.3518 27.5373L66.6319 28.1789C66.2629 29.4564 65.4851 30.5777 64.4179 31.371C63.2835 32.163 61.9229 32.5658 60.5401 32.5189ZM71.7488 22.5745C72.0406 22.3789 72.3625 22.2323 72.7017 22.1405C73.0547 22.0406 73.4198 21.9899 73.7867 21.9896C74.0081 21.988 74.2292 22.007 74.4472 22.0462V24.1596C74.2135 24.0957 73.9723 24.064 73.7301 24.0652C73.2434 24.0581 72.7628 24.175 72.3337 24.4049C71.8945 24.6422 71.5413 25.012 71.3242 25.4616C71.0935 25.9641 70.9805 26.5127 70.994 27.0655V32.2359H68.7139V22.0462H70.7298V23.6658C70.9744 23.2237 71.3244 22.8488 71.7488 22.5745ZM84.033 23.6501C84.1944 23.9663 84.3007 24.3077 84.3475 24.6596C84.3966 25.1013 84.4187 25.5456 84.4136 25.99V32.2359H82.4291V30.8584C82.0297 31.3923 81.5091 31.8235 80.9101 32.1163C80.2596 32.4016 79.5539 32.5391 78.8438 32.5189C78.2025 32.5364 77.5669 32.3937 76.9946 32.1038C76.5057 31.8528 76.0996 31.4663 75.8247 30.9904C75.5599 30.5182 75.4243 29.9845 75.4315 29.4431C75.4096 28.7722 75.6085 28.1126 75.9976 27.5656C76.45 27.0042 77.0619 26.5931 77.7525 26.3862C78.3287 26.2153 78.9147 26.0798 79.5074 25.9805C80.1888 25.861 81.082 25.7258 82.1869 25.5748C82.1911 25.328 82.1437 25.0831 82.0479 24.8557C81.952 24.6282 81.8098 24.4233 81.6303 24.2539C81.1807 23.9427 80.6375 23.7961 80.0924 23.8388C79.6136 23.8326 79.1416 23.953 78.7243 24.1879C78.3122 24.4246 78.0104 24.8146 77.8846 25.2729L75.7869 24.6093C76.0205 23.7594 76.5446 23.0182 77.2682 22.5148C78.1147 21.9771 79.1064 21.7135 80.1081 21.76C82.0831 21.7621 83.3914 22.3921 84.033 23.6501ZM81.9196 29.0123C82.0886 28.5001 82.1704 27.9633 82.1618 27.4241C81.4321 27.5373 80.7874 27.6474 80.2276 27.7543C79.779 27.8358 79.3349 27.9408 78.8973 28.0688C78.5518 28.1899 78.2341 28.3792 77.9632 28.6254C77.8597 28.7279 77.7784 28.8506 77.7242 28.9859C77.6701 29.1211 77.6444 29.2661 77.6487 29.4117C77.6428 29.5909 77.678 29.7691 77.7515 29.9327C77.8251 30.0962 77.9352 30.2407 78.0733 30.3552C78.4235 30.6155 78.855 30.7426 79.2904 30.7137C79.915 30.7385 80.5298 30.5524 81.0359 30.1853C81.4491 29.8997 81.7591 29.4883 81.9196 29.0123ZM91.3167 20.2158C90.9671 20.1899 90.6213 20.3029 90.3544 20.5303C90.2445 20.6435 90.1592 20.7782 90.104 20.926C90.0488 21.0737 90.0248 21.2314 90.0336 21.3889V22.0493H92.4867V23.8231H90.0336V32.2359H87.7535V23.8231H86.1087V22.0462H87.7504V21.8763C87.7439 21.376 87.7818 20.8761 87.8636 20.3825C87.9429 19.9596 88.139 19.5674 88.4297 19.2503C88.6718 18.9781 88.9716 18.7632 89.3071 18.6213C89.5818 18.501 89.8736 18.4246 90.172 18.3949C90.4299 18.376 90.779 18.3666 91.2193 18.3666H92.4835V20.2158H91.3167ZM96.9777 27.9524V28.5562C96.9741 28.8055 96.9899 29.0547 97.0249 29.3016C97.0465 29.4705 97.0998 29.6337 97.1821 29.7828C97.3659 30.0213 97.6089 30.2077 97.8869 30.3236C98.1649 30.4394 98.4683 30.4807 98.7672 30.4432C99.1715 30.4276 99.5747 30.3898 99.9748 30.33V32.2359C99.4033 32.3529 98.8221 32.4161 98.2388 32.4246C97.5847 32.439 96.9343 32.3214 96.3267 32.0786C95.8067 31.8703 95.376 31.4864 95.1096 30.9936C94.9509 30.6936 94.8425 30.3695 94.7888 30.0344C94.7331 29.6501 94.7068 29.2622 94.7102 28.8739V23.8231H92.8641V22.0462H94.7133V19.2157H96.9777V22.0462H99.978V23.8231H96.9777V27.9524ZM103.525 27.7826C103.56 28.5009 103.844 29.1847 104.327 29.7167C104.57 29.946 104.856 30.1236 105.169 30.2388C105.482 30.3539 105.815 30.4042 106.148 30.3866C106.654 30.399 107.154 30.2717 107.592 30.0187C108.009 29.7637 108.336 29.3842 108.526 28.9336L110.771 29.613C110.421 30.499 109.796 31.2495 108.988 31.7547C108.172 32.2657 107.225 32.531 106.262 32.5189C105.319 32.5349 104.389 32.304 103.563 31.849C102.784 31.4155 102.145 30.7671 101.723 29.9809C101.28 29.1416 101.056 28.2035 101.072 27.2542C101.051 26.2543 101.271 25.2639 101.714 24.3672C102.114 23.5666 102.736 22.8983 103.507 22.4424C104.309 21.9803 105.222 21.7454 106.148 21.7631C107.035 21.7417 107.911 21.9671 108.677 22.4141C109.4 22.8551 109.975 23.5024 110.328 24.2728C110.729 25.1613 110.926 26.1286 110.904 27.1033C110.904 27.4052 110.897 27.6316 110.885 27.7826H103.525ZM106.243 23.7445C105.916 23.7169 105.587 23.755 105.275 23.8564C104.964 23.9579 104.675 24.1206 104.428 24.3351C104.18 24.5496 103.977 24.8115 103.832 25.1054C103.687 25.3994 103.602 25.7193 103.582 26.0466H108.579C108.542 25.401 108.29 24.7865 107.862 24.3011C107.643 24.1056 107.387 23.9557 107.108 23.8601C106.83 23.7646 106.536 23.7253 106.243 23.7445ZM121.999 18.6496V32.2359H119.98V31.4999C119.178 32.1873 118.149 32.5507 117.093 32.5189C116.227 32.534 115.376 32.291 114.649 31.8207C113.931 31.3468 113.362 30.6796 113.008 29.896C112.614 29.0317 112.417 28.0906 112.432 27.141C112.415 26.1861 112.615 25.2397 113.017 24.3734C113.381 23.5924 113.956 22.9288 114.678 22.4582C115.421 21.9851 116.287 21.7423 117.168 21.76C118.082 21.7347 118.978 22.0134 119.716 22.5525V18.6496H121.999ZM117.433 30.481C117.804 30.5101 118.176 30.444 118.515 30.2888C118.853 30.1336 119.147 29.8944 119.367 29.5941C119.815 28.8573 120.028 28.0019 119.98 27.141C120.026 26.2833 119.812 25.4317 119.367 24.6974C119.16 24.4006 118.881 24.1622 118.555 24.0052C118.229 23.8482 117.869 23.7779 117.508 23.8011C117.126 23.7794 116.745 23.8535 116.399 24.0167C116.053 24.1798 115.753 24.4267 115.527 24.7351C115.048 25.4436 114.81 26.287 114.847 27.141C114.808 27.9956 115.039 28.8408 115.508 29.5563C115.725 29.86 116.015 30.104 116.352 30.2656C116.688 30.4272 117.06 30.5013 117.433 30.481ZM127.471 22.0273L129.717 22.0462L131.717 28.572L133.717 22.0462H135.626L137.645 28.572L139.627 22.0462H141.853L138.737 32.2359H136.831L134.661 25.2163L132.359 32.2359H130.585L127.471 22.0273ZM143.737 18.3854H146.001V20.4611H143.737V18.3854ZM143.737 22.0462H146.001V32.2359H143.737V22.0462ZM151.813 27.9524V28.5562C151.81 28.8055 151.825 29.0547 151.86 29.3016C151.882 29.4705 151.935 29.6337 152.018 29.7828C152.202 30.0213 152.444 30.2077 152.722 30.3236C153 30.4394 153.304 30.4807 153.603 30.4432C154.007 30.4276 154.41 30.3898 154.81 30.33V32.2359C154.241 32.3525 153.662 32.4157 153.081 32.4246C152.424 32.4399 151.772 32.3222 151.162 32.0786C150.642 31.8703 150.212 31.4864 149.945 30.9936C149.785 30.6938 149.676 30.3697 149.621 30.0344C149.566 29.6501 149.539 29.2622 149.543 28.8739V23.8231H147.693V22.0462H149.543V19.2157H151.807V22.0462H154.81V23.8231H151.81L151.813 27.9524ZM162.343 21.7631C163.953 21.7631 165.025 22.282 165.56 23.3199C166.083 24.3118 166.358 25.4157 166.362 26.5372V32.2359H164.06V27.3297C164.06 25.0402 163.261 23.8954 161.663 23.8954C161.347 23.8872 161.033 23.9451 160.74 24.0653C160.448 24.1855 160.184 24.3655 159.965 24.5936C159.443 25.2772 159.2 26.134 159.286 26.9901V32.2359H156.984V18.6496H159.022V23.1784C159.429 22.7027 159.94 22.3275 160.516 22.082C161.092 21.8365 161.717 21.7274 162.343 21.7631ZM202.969 18.3823H205.234V20.458H202.969V18.3823ZM202.969 22.043H205.234V32.2359H202.969V22.043ZM213.404 21.76C215.014 21.76 216.087 22.2789 216.622 23.3167C217.145 24.3087 217.42 25.4126 217.423 26.534V32.2359H215.121V27.3297C215.121 25.0402 214.323 23.8954 212.725 23.8954C212.409 23.8872 212.095 23.9451 211.802 24.0653C211.51 24.1855 211.246 24.3655 211.027 24.5936C210.504 25.2772 210.261 26.134 210.347 26.9901V32.2359H208.045V22.0462H210.083V23.1784C210.49 22.7027 211.002 22.3275 211.578 22.082C212.154 21.8365 212.779 21.7274 213.404 21.7631V21.76ZM223.842 18.6496H226.107V32.2359H223.842V18.6496ZM234.277 21.7631C235.888 21.7631 236.96 22.282 237.495 23.3199C238.018 24.3118 238.293 25.4157 238.297 26.5372V32.2359H235.994V27.3297C235.994 25.0402 235.196 23.8954 233.598 23.8954C233.282 23.8872 232.968 23.9451 232.675 24.0653C232.383 24.1855 232.119 24.3655 231.9 24.5936C231.377 25.2772 231.134 26.134 231.22 26.9901V32.2359H228.918V22.0462H230.956V23.1784C231.363 22.7031 231.874 22.3282 232.45 22.0827C233.025 21.8373 233.65 21.7279 234.274 21.7631H234.277ZM249.6 18.6496V32.2359H247.581V31.4999C246.779 32.1884 245.75 32.5529 244.693 32.522C243.828 32.5372 242.977 32.2941 242.25 31.8239C241.532 31.35 240.963 30.6827 240.608 29.8991C240.215 29.0358 240.018 28.0959 240.033 27.1473C240.014 26.1905 240.212 25.2419 240.614 24.3734C240.978 23.5924 241.553 22.9288 242.275 22.4582C243.018 21.9851 243.885 21.7423 244.766 21.76C245.679 21.7347 246.575 22.0134 247.313 22.5525V18.6496H249.6ZM245.03 30.481C245.401 30.5101 245.774 30.444 246.112 30.2888C246.451 30.1336 246.744 29.8944 246.964 29.5941C247.412 28.8573 247.626 28.0019 247.577 27.141C247.623 26.2833 247.41 25.4317 246.964 24.6974C246.758 24.4006 246.478 24.1622 246.152 24.0052C245.827 23.8482 245.466 23.7779 245.105 23.8011C244.724 23.7794 244.342 23.8535 243.996 24.0167C243.65 24.1798 243.35 24.4267 243.124 24.7351C242.646 25.4436 242.408 26.287 242.445 27.141C242.405 27.9956 242.636 28.8408 243.105 29.5563C243.322 29.86 243.613 30.104 243.949 30.2656C244.285 30.4272 244.657 30.5013 245.03 30.481ZM252.427 18.3854H254.691V20.4611H252.427V18.3854ZM252.427 22.0462H254.691V32.2359H252.427V22.0462ZM265.557 23.6501C265.719 23.9663 265.825 24.3077 265.872 24.6596C265.921 25.1013 265.943 25.5456 265.938 25.99V32.2359H263.956V30.8584C263.557 31.3923 263.036 31.8235 262.437 32.1163C261.787 32.4016 261.081 32.5391 260.371 32.5189C259.73 32.5364 259.094 32.3937 258.522 32.1038C258.033 31.8528 257.627 31.4663 257.352 30.9904C257.087 30.5182 256.952 29.9845 256.959 29.4431C256.937 28.7722 257.136 28.1126 257.525 27.5656C257.977 27.0042 258.589 26.5931 259.28 26.3862C259.855 26.2154 260.44 26.0799 261.032 25.9805C261.713 25.861 262.606 25.7258 263.711 25.5748C263.715 25.328 263.668 25.0831 263.572 24.8557C263.476 24.6282 263.334 24.4233 263.154 24.2539C262.705 23.9427 262.162 23.7961 261.617 23.8388C261.138 23.8326 260.666 23.953 260.248 24.1879C259.836 24.4246 259.535 24.8146 259.409 25.2729L257.314 24.6125C257.548 23.7625 258.072 23.0213 258.795 22.5179C259.642 21.9802 260.634 21.7166 261.635 21.7631C263.61 21.7631 264.919 22.3921 265.56 23.6501H265.557ZM263.447 29.0123C263.617 28.5013 263.699 27.9655 263.692 27.4272C262.963 27.5404 262.318 27.6505 261.758 27.7574C261.309 27.839 260.865 27.9439 260.428 28.0719C260.082 28.193 259.765 28.3823 259.494 28.6286C259.39 28.7311 259.309 28.8537 259.255 28.989C259.201 29.1243 259.175 29.2692 259.179 29.4148C259.173 29.5941 259.208 29.7723 259.282 29.9358C259.356 30.0994 259.466 30.2439 259.604 30.3583C259.954 30.6186 260.385 30.7457 260.821 30.7168C261.445 30.7416 262.06 30.5555 262.566 30.1885C262.979 29.9015 263.288 29.489 263.447 29.0123Z" fill="white"/>
<path d="M189.124 18.0763H189.118C188.819 18.0775 188.521 18.1022 188.226 18.1502C188.019 18.1843 187.813 18.2302 187.611 18.2878C188.735 18.592 189.729 19.255 190.442 20.1759C191.155 21.0968 191.548 22.2252 191.561 23.3897C191.561 25.0487 190.756 25.6965 189.539 27.4852L185.029 33.29L192.598 27.4844C193.221 26.9979 193.727 26.3771 194.077 25.6682C194.428 24.9593 194.614 24.1804 194.621 23.3897C194.596 21.9565 194.003 20.592 192.972 19.5958C191.941 18.5996 190.557 18.0531 189.124 18.0763Z" fill="#D174A3"/>
<path d="M180.934 18.0763C181.708 18.0661 182.474 18.223 183.181 18.5362C183.888 18.8493 184.519 19.3114 185.032 19.8909C185.55 19.3204 186.182 18.8643 186.886 18.5519C187.591 18.2394 188.353 18.0774 189.124 18.0763C190.557 18.0537 191.94 18.6005 192.97 19.5967C194 20.5928 194.593 21.9569 194.619 23.3897C194.62 24.1819 194.438 24.9636 194.088 25.674C193.737 26.3844 193.227 27.0042 192.598 27.4852L185.032 33.29L177.591 27.5898C176.929 27.1068 176.39 26.4754 176.016 25.7462C175.642 25.0171 175.445 24.2105 175.439 23.3912C175.45 22.681 175.6 21.9799 175.883 21.328C176.165 20.6761 176.573 20.0863 177.083 19.5925C177.594 19.0987 178.197 18.7106 178.858 18.4504C179.519 18.1902 180.224 18.063 180.934 18.0763Z" fill="#EA6464"/>
<path d="M180.935 19.6574C179.931 19.645 178.964 20.0313 178.244 20.7314C177.525 21.4316 177.113 22.3884 177.099 23.392C177.099 23.5983 177.181 23.796 177.326 23.9419C177.472 24.0877 177.67 24.1696 177.876 24.1696C178.082 24.1696 178.28 24.0877 178.426 23.9419C178.572 23.796 178.654 23.5983 178.654 23.392C178.672 22.8027 178.922 22.2442 179.348 21.8371C179.775 21.4299 180.344 21.2068 180.934 21.2157C181.14 21.2157 181.338 21.1338 181.484 20.988C181.63 20.8421 181.712 20.6444 181.712 20.4381C181.712 20.2319 181.63 20.0341 181.484 19.8883C181.338 19.7425 181.14 19.6605 180.934 19.6605" fill="#FAE6F0"/>
<path d="M185.029 34.0676C184.861 34.0671 184.698 34.0119 184.563 33.9103L177.125 28.2085C176.362 27.6575 175.741 26.9333 175.313 26.0956C174.885 25.2578 174.662 24.3304 174.662 23.3897C174.7 22.2057 175.071 21.0563 175.733 20.0739C176.394 19.0915 177.32 18.316 178.404 17.8367C179.487 17.3573 180.683 17.1936 181.856 17.3644C183.028 17.5351 184.128 18.0334 185.029 18.8019C186.175 17.8352 187.625 17.303 189.124 17.2986C190.763 17.2768 192.344 17.9057 193.52 19.0475C194.695 20.1893 195.371 21.7508 195.397 23.3897C195.395 24.2994 195.186 25.1967 194.787 26.014C194.387 26.8312 193.807 27.5469 193.09 28.1071L185.496 33.9127C185.361 34.0134 185.198 34.0678 185.029 34.0676ZM180.935 18.8538C179.709 18.8352 178.526 19.3014 177.643 20.1509C176.759 21.0003 176.247 22.1644 176.217 23.3897C176.217 24.0897 176.384 24.7797 176.704 25.4023C177.024 26.025 177.488 26.5622 178.057 26.9694L185.029 32.3347L192.131 26.8908C192.661 26.4803 193.091 25.9541 193.388 25.3523C193.684 24.7504 193.84 24.0889 193.842 23.418C193.816 22.1913 193.306 21.0247 192.421 20.1743C191.537 19.3239 190.351 18.8592 189.124 18.8821C188.461 18.8831 187.805 19.0219 187.199 19.2896C186.592 19.5573 186.047 19.9481 185.6 20.4373C185.451 20.5947 185.246 20.6878 185.029 20.6968C184.921 20.6976 184.814 20.6749 184.716 20.63C184.617 20.5852 184.53 20.5195 184.459 20.4373C184.02 19.9356 183.478 19.5344 182.87 19.2611C182.262 18.9878 181.602 18.8489 180.935 18.8538Z" fill="white"/>
</g>
<defs>
<clipPath id="clip0_263_591">
<rect width="320" height="50.3194" fill="white"/>
</clipPath>
</defs>
</svg>
